<?xml version="1.0" encoding="UTF-8"?>
<!DOCTYPE svg PUBLIC "-//W3C//DTD SVG 1.1//EN" "http://www.w3.org/Graphics/SVG/1.1/DTD/svg11.dtd">
<!-- Creator: CorelDRAW -->
<svg xmlns="http://www.w3.org/2000/svg" xml:space="preserve" width="23.1999mm" height="22.599mm" version="1.1" style="shape-rendering:geometricPrecision; text-rendering:geometricPrecision; image-rendering:optimizeQuality; fill-rule:evenodd; clip-rule:evenodd"
viewBox="0 0 329.57 321.04"
 xmlns:xlink="http://www.w3.org/1999/xlink"
 xmlns:xodm="http://www.corel.com/coreldraw/odm/2003">
 <defs>
  <style type="text/css">
   <![CDATA[
    .fil1 {fill:white}
    .fil0 {fill:url(#id0)}
   ]]>
  </style>
  <linearGradient id="id0" gradientUnits="userSpaceOnUse" x1="-0" y1="160.07" x2="329.57" y2="160.07">
   <stop offset="0" style="stop-opacity:1; stop-color:#00864F"/>
   <stop offset="0.0313725" style="stop-opacity:1; stop-color:#00864F"/>
   <stop offset="1" style="stop-opacity:1; stop-color:#04B26F"/>
  </linearGradient>
 </defs>
 <g id="TEXTS">
  <metadata id="CorelCorpID_0Corel-Layer"/>
  <g id="_1997314835376">
   <path class="fil0" d="M329.28 192.5c0.07,-1.58 0.18,-3.17 0.29,-4.76 -0.12,-5.36 -0.55,-10.72 -1.8,-15.77 -2.93,-2.34 -5.43,-4.35 -8.07,-6.46 0.17,-2.65 0.13,-2.51 -2.74,-3.21 -1.27,-0.31 -2.71,-1.06 -3.48,-2.06 -2.22,-2.87 -4.19,-5.93 -6.16,-8.99 -1.71,-2.67 -2.84,-6.11 -0.62,-8.37 2.46,-2.52 1.56,-4.05 0.37,-6.39 -1.56,-3.09 -3.1,-6.37 -0.72,-9.18 -1.71,-3.95 -3.3,-7.63 -4.91,-11.35 -1.95,0.6 -3.66,1.12 -5.39,1.65 -0.6,1.29 -1.26,2.7 -2.28,4.91 -0.37,-2.61 -0.62,-4.4 -0.94,-6.7 5.08,1.99 4.65,-2.79 6.74,-4.39 -2.13,0.95 -4.26,1.9 -6.83,3.04 -0.55,-3.55 -1,-6.41 -1.42,-9.14 -1.29,-0.33 -2.99,-0.75 -4.56,-1.15 -0.22,-6.62 3.74,-7.71 8.66,-7.91 -2.25,-0.26 -4.5,-0.51 -6.8,-0.77 -1.36,2.53 -2.75,3.58 -5.5,1.38 -1.4,-1.13 -3.46,-1.18 -3.26,-3.76 0.03,-0.46 -1.3,-1.19 -2.12,-1.52 -2.46,-1.02 -2.19,-2.31 -0.19,-4.51 1.19,1.51 2.18,2.79 3.18,4.06 0.24,0.01 0.48,0.02 0.72,0.03 -0.17,-1.57 -0.33,-3.13 -0.5,-4.73 0.37,-0.1 0.98,-0.28 2.14,-0.62 -2.77,-0.35 -4.94,-0.62 -7.51,-0.93 0.3,-2.03 0.58,-3.86 0.92,-6.14 -5.51,-0.77 -6.83,-5.82 -9.03,-10.19 -0.73,0.52 -1.47,1.05 -2.22,1.58 -0.37,-0.14 -0.74,-0.28 -1.11,-0.42 0.43,-2.46 0.86,-4.93 1.29,-7.39 0.75,0.13 1.5,0.26 2.19,0.38 1.82,-3.54 -1.07,-3.72 -3.55,-4.72 -0.56,1.48 -1.09,2.87 -1.37,3.6 -2.33,-0.48 -4.49,-0.93 -5.85,-1.22 -1.91,-2.08 -3.63,-3.95 -5.77,-6.29 3.02,0.15 2.51,-1.16 1.12,-2.9 1.52,0.4 2.38,0.62 3.24,0.84 0.19,-0.17 0.38,-0.34 0.57,-0.51 -1.07,-1.32 -2.15,-2.64 -3.75,-4.61 -0.78,2.18 -1.26,3.53 -1.73,4.82 -1.63,-0.7 -3.26,-1.4 -5.8,-2.5 0.91,1.63 1.28,2.28 1.65,2.93 -0.25,0.27 -0.5,0.54 -0.75,0.8 -0.87,-0.85 -1.79,-1.64 -2.59,-2.55 -1.39,-1.58 -2.54,-3.42 -4.12,-4.78 -1.36,-1.18 -3.16,-1.87 -4.77,-2.77 0.55,-1.3 0.95,-2.24 1.43,-3.36 -6.18,-2.57 -12.33,-2.42 -18.59,-0.55 -0.21,-1.24 -0.33,-1.82 -0.4,-2.4 -0.5,-4.08 0.59,-5.27 4.57,-5.41 0.79,-0.03 1.55,-0.88 2.81,-1.65 -2.29,-1.05 -3.88,-1.76 -5.57,-2.54 -2.24,2.36 -4.99,4.29 -8.11,2.74 -2.76,-1.37 -5.1,-1.36 -7.75,-0.3 -0.87,0.35 -1.88,0.36 -2.83,0.52 -0.23,-0.26 -0.45,-0.53 -0.68,-0.79 4.11,-5.77 8.08,-11.6 9.56,-18.73 -2.72,1.65 -5,3.64 -7.26,5.64 -2.6,2.31 -4.91,5.17 -7.89,6.76 -1.52,0.82 -4.32,-0.43 -6.34,-1.24 -0.31,-0.12 0.13,-3.2 0.87,-4.57 1.37,-2.55 3.39,-4.75 4.79,-7.29 1.65,-2.98 2.92,-6.17 4.54,-9.67 -5.8,1.53 -8.27,5.78 -11.29,9.37 -2.31,2.75 -5.01,4.09 -8.69,3.2 -4.76,-1.14 -9.53,-2.06 -13.78,1.65 -0.47,0.41 -1.55,0.14 -2.35,0.15 -3.82,0.01 -7.63,0 -11.44,0 -0.04,0.25 -0.07,0.49 -0.11,0.75 1.46,0.78 2.92,1.56 4.6,2.45 -4.45,4.16 -8.75,7.41 -15.14,6.45 -1.26,-0.19 -2.85,1.81 -4.28,2.81 0.95,1.32 1.79,2.74 2.89,3.91 0.62,0.66 1.68,0.91 2.55,1.35 -0.05,0.47 -0.1,0.93 -0.15,1.4 -2.81,0.15 -5.62,0.3 -8.77,0.47 -0.24,0.71 -0.6,1.76 -0.95,2.8l-0.03 0.01c1.42,-0.58 2.83,-1.16 4.26,-1.74 0.69,2.71 -0.43,4.27 -3.02,4.28 -1.05,0 -2.14,-0.26 -3.15,-0.09 -5.82,1.02 -9.69,-0.43 -13.22,-4.9 -0.46,-0.59 -1.5,-0.71 -2.02,-0.94 0.54,-1.28 1.03,-2.41 1.51,-3.54 -3.05,1.48 -5.46,2.89 -7.98,-0.3 -0.37,-0.47 -1.77,-0.48 -2.52,-0.22 -4.5,1.55 -6.1,1.2 -8.57,-1.72 -2.25,0.67 -5.26,2.35 -5.96,1.66 -3.54,-3.46 -7.8,-1.27 -11.52,-2.27 -3.52,-0.93 -6.83,-2.62 -10.3,-3.79 -3.03,-1.02 -6.27,-0.56 -8.12,1.89 -1.03,1.36 -0.72,4.17 -0.25,6.14 0.97,4.09 3.7,6.99 7.34,9.1 0.9,0.52 1.52,1.52 2.62,2.66 -2.22,0.14 -3.87,-0.23 -4.83,0.42 -1.63,1.09 -3.12,2.68 -4.01,4.4 -0.23,0.44 1.86,2.34 3.12,3.24 2.32,1.67 4.87,3.01 7.21,4.64 2.31,1.63 1.95,3.1 -0.38,4.58 -1.63,1.03 -2.99,2.49 -4.47,3.76 0.05,0.4 0.09,0.8 0.13,1.2 -2.24,-0.72 -4.45,-1.9 -6.73,-2.05 -3.89,-0.26 -8.96,-1.35 -11.46,0.59 -3.3,2.56 -8.15,4.6 -9.04,9.88 -0.22,1.28 -1.64,2.82 -2.89,3.37 -4.68,2.08 -8.16,6.9 -14.25,6.01 -1.15,-0.17 -3.61,1.75 -3.7,2.86 -0.14,1.69 0.92,3.76 2.08,5.19 1.64,2.04 3.82,3.64 5.91,5.54 -4.61,3.3 -8.87,6.36 -12.95,9.28 -1.61,-1.53 -3.57,-3.36 -5.47,-5.26 -0.81,-0.8 -1.81,-1.63 -2.16,-2.64 -0.95,-2.67 -2.68,-2.75 -5.52,-2 1.42,2.44 2.89,4.44 3.83,6.68 1.85,4.43 4.07,8.86 4.92,13.51 1.03,5.64 3,10.63 6.21,15.27 0.91,1.32 1.46,2.9 2.17,4.36 -0.38,0.32 -0.76,0.63 -1.14,0.95 3.19,0.22 5.96,0.81 6.79,4.38 0.81,3.54 2.29,6.94 2.94,10.49 0.34,1.86 0.25,4.6 -0.87,5.78 -3.06,3.23 -3.61,6.6 -2.35,10.58 0.07,0.21 -0.02,0.47 -0.04,0.71 -0.41,3.63 -0.75,7.28 -1.27,10.9 -0.34,2.3 0.12,3.49 2.74,2.86 0.41,-0.1 0.93,0.26 1.92,0.58 -1.4,0.8 -2.32,1.32 -3.23,1.84 1.49,0.72 2.87,0.91 4.17,0.64 0.74,-0.15 1.68,-0.9 1.94,-1.6 0.62,-1.66 4.63,-5.92 6.22,-5.76 1.3,0.13 2.54,1.01 3.8,1.56 0.61,0.27 1.22,0.53 1.55,0.68 0.89,-1.45 1.68,-2.72 2.59,-4.2 1.4,2.31 2.64,3.93 3.38,5.75 0.34,0.84 -0.13,2.94 -0.51,3.01 -3.43,0.63 -4.55,3.26 -5.41,6.16 -0.42,-0.32 -0.66,-0.43 -0.79,-0.61 -0.26,-0.39 -0.45,-0.82 -0.67,-1.24 -2.13,-4.12 -2.4,-4.15 -6.33,-1.76 -0.87,0.52 -2.41,0.99 -3.11,0.57 -2.39,-1.43 -3.06,-0.14 -4.02,2.31 6.45,-2.15 11.03,0.14 14.73,4.8 -2.56,5.53 -2.81,5.95 1.6,8.63 3.7,2.25 2.42,5.17 2.57,8.14 -5.61,0.05 -9.12,-8.74 -15.56,-3.6 1.32,-0.07 2.95,-1.5 3.82,-1.13 2.5,1.06 4.79,2.73 6.92,4.46 0.39,0.31 -0.35,2.03 -0.54,2.92 0.64,1.09 2,2.34 1.84,3.34 -0.55,3.48 -1.63,6.88 -2.6,10.69 2.28,0.84 4.54,2.28 3.85,5.72 -0.06,0.31 0.44,0.83 0.79,1.12 2.16,1.85 4.36,3.68 6.62,5.58 -1.14,1.35 -2.78,3.28 -4.54,5.35 2,1.4 4.15,2.92 6.62,4.66 -0.99,-4.61 1.93,-9.44 6.55,-11.26 0.43,0.91 1.49,2.19 1.2,2.72 -1.94,3.54 -1.51,4.88 2.9,5.6 1.5,0.25 6.4,2.56 3.56,6.99 -0.3,0.46 0.21,1.44 0.43,2.68 -3.04,-2.8 -5.65,-5.32 -8.42,-7.67 -0.58,-0.49 -2.16,-0.75 -2.46,-0.4 -0.56,0.65 -0.94,2 -0.63,2.73 0.69,1.56 2,2.84 2.82,4.36 1.74,3.22 6.91,3.98 6.23,8.56 2.24,1.07 4.24,2.7 6.34,2.84 2.22,0.14 4.53,-1.14 7.07,-1.88 -0.32,2.24 -0.19,4.38 -0.98,6.11 -0.9,1.98 -1.77,5.22 -5.34,2.7 -0.5,-0.36 -1.66,0.21 -3.43,0.5 2.18,1.77 3.52,2.86 4.82,3.91 3.64,-2.15 6.93,-2.63 10.14,0.52 0.73,0.72 2.14,0.83 3.27,1.04 5.17,0.95 10.37,1.75 15.53,2.8 2.14,0.44 4.42,5.68 3.08,7.34 -0.92,1.13 -1.91,2.2 -2.93,3.24 0.66,1.56 1.01,3.26 0.94,5.02 -0.06,0.73 -0.05,1.47 -0.02,2.2 0.01,0.06 0.03,0.12 0.05,0.18 0.44,0.2 0.86,0.43 1.28,0.65 2.2,-0.33 4.53,0.27 6.52,1.69 0.71,0.51 1.6,1.02 2.43,1.07 3.36,0.19 6.8,2.61 10.12,-0.25 0.25,-0.22 0.92,-0.06 1.37,0.05 3.75,0.87 7.5,1.77 11.98,2.84 -1.64,-1.46 -2.76,-2.46 -4.04,-3.61 5.49,-3.2 10.62,-5.17 16.68,-2.75 1.15,0.46 3.05,-0.97 4.6,-1.53 -0.58,-1.51 -1.08,-3.05 -1.77,-4.51 -0.5,-1.05 -1.23,-1.97 -1.87,-2.96 1.13,0.01 2.36,-0.26 3.38,0.09 4.11,1.4 4.87,1.38 6.54,-1.09 -1.46,0.3 -2.73,0.56 -4.04,0.82 -0.17,-3.21 1.33,-4.5 4.06,-3.82 1.02,0.25 2.15,1 3.01,0.76 5.26,-1.51 7.47,3.63 11.35,5.07 0.24,0.09 0.18,0.87 0.36,1.28 0.57,1.23 1.19,2.43 1.75,3.56 -0.59,0.64 -1.44,1.57 -2.3,2.5 3.2,-0.62 5.93,-1.56 7.64,2.15 0.17,0.36 1.52,0.33 2.29,0.22 1.37,-0.19 2.7,-0.58 3.97,-0.86 1.51,2.02 2.96,3.94 3.77,5.02 2.74,0 6.09,-0.85 6.8,0.15 2.41,3.42 5.37,3.92 9.13,4.21 1.9,0.15 3.55,2.57 5.46,3.73 2.59,1.59 5.15,3.55 8,4.31 4.57,1.21 6.85,-1.2 6.77,-5.79 -0.08,-4.67 -1.8,-8.45 -5.07,-11.69 -0.73,-0.72 -1.13,-1.78 -1.85,-2.94 1.05,-0.19 1.32,-0.33 1.49,-0.25 3.68,1.51 6.91,1.04 8.02,-1.75 1.32,-3.32 -1.71,-4.33 -3.83,-5.67 -0.1,-0.06 -0.24,-0.09 -0.3,-0.18 -1.93,-2.61 -3.85,-5.23 -5.52,-7.51 4.01,-2.32 7.25,-4.19 10.71,-6.19 0,0.01 0.34,0.33 0.7,0.61 2.49,1.96 3.91,4.89 7.94,5.33 3.84,0.41 7.31,1.92 10.24,-1.85 0.29,-0.37 1.2,-0.2 1.65,-0.52 1.83,-1.31 3.58,-2.71 5.37,-4.08 1.48,-1.12 2.82,-2.83 4.48,-3.23 5.11,-1.22 9.84,-3.98 15.67,-2.44 3.53,0.94 5.53,-3.3 3.45,-6.52 -4.95,-7.66 -10.51,-14.68 -18.34,-19.75 -4.65,-3.01 -4.57,-3.88 -1.25,-8.16 2.01,-0.97 4.02,-1.94 6.23,-3.01 0.43,0.95 0.96,2.16 1.48,3.3 4.01,-1.66 6.13,1.46 8.93,2.96 2.21,1.18 4.74,1.91 7.21,2.45 1.37,0.31 2.91,-0.17 4.37,-0.29 0.07,0.35 0.14,0.69 0.21,1.04 2.19,-1.54 6.4,-0.26 6.51,-4.75 0,-0.13 0.6,-0.27 0.92,-0.39 2.96,-1.11 4.64,-4.35 3.74,-7.5 -1.27,-4.5 -0.59,-8.23 3.61,-10.95 1.07,-0.69 1.8,-1.93 2.74,-2.97 3.19,1.86 5.93,1.29 8.55,-1.35 2.51,-2.52 0.09,-4.18 -0.86,-5.96 5.02,-6.28 9.89,-12.37 14.56,-18.22z"/>
   <path class="fil1" d="M201.31 165.96c-3.14,-1.88 -7.22,-3.97 -10.92,-2.46 -2.84,1.16 -4.65,5.6 -6.48,7.87 -0.94,1.16 -2.07,1.35 -3.52,0.76 -10.65,-4.24 -18.81,-11.35 -24.68,-21.15 -1,-1.52 -0.82,-2.72 0.38,-4.13 1.78,-2.09 4,-4.46 4.48,-7.28 0.48,-2.82 -0.84,-6.11 -2.01,-8.62 -1.49,-3.2 -3.15,-7.77 -6.36,-9.59 -2.95,-1.67 -6.84,-0.73 -9.46,1.41 -4.54,3.69 -6.73,9.48 -6.66,15.22 0.02,1.63 0.22,3.25 0.6,4.83 0.91,3.78 2.66,7.32 4.63,10.67 1.48,2.53 3.1,4.99 4.84,7.36 5.69,7.73 12.78,14.45 20.98,19.48 4.1,2.51 8.51,4.71 13.09,6.22 5.13,1.69 9.69,3.46 15.23,2.41 5.8,-1.1 11.51,-4.69 13.81,-10.27 0.68,-1.66 1.02,-3.49 0.64,-5.24 -0.79,-3.61 -5.68,-5.76 -8.6,-7.5z"/>
   <path class="fil1" d="M172.95 217.19c-11.05,0 -21.97,-3.02 -31.57,-8.74l-2.61 -1.56 -23.18 6.21 6.18 -23.06 -1.6 -2.63c-5.92,-9.71 -9.04,-20.8 -9.04,-32.06 0,-34.09 27.74,-61.83 61.83,-61.83 34.09,0 61.83,27.74 61.83,61.83 0,34.1 -27.74,61.83 -61.83,61.83zm0 -138.07c-42.04,0 -76.25,34.2 -76.25,76.24 0,12.86 3.3,25.53 9.57,36.83l-11.07 41.29 41.5 -11.12c11.16,6.05 23.62,9.24 36.24,9.24 42.04,0 76.24,-34.2 76.24,-76.25 0,-42.04 -34.2,-76.24 -76.24,-76.24z"/>
  </g>
 </g>
</svg>
